<svg width="922" height="922" viewBox="0 0 922 922" fill="none" xmlns="http://www.w3.org/2000/svg">
<circle cx="461" cy="461" r="461" fill="#F6CD61"/>
<path d="M770 461C770 631.656 631.656 770 461 770C290.344 770 152 631.656 152 461C152 290.344 290.344 152 461 152C631.656 152 770 290.344 770 461Z" fill="white"/>
<circle cx="461" cy="461" r="240" fill="#F6CD61"/>
<path d="M501 461C501 483.091 483.091 501 461 501C438.909 501 421 483.091 421 461C421 438.909 438.909 421 461 421C483.091 421 501 438.909 501 461Z" fill="white"/>
</svg>
